<?xml version="1.0" encoding="UTF-8" standalone="no"?>
<!-- Created with Inkscape (http://www.inkscape.org/) -->

<svg
   width="118.63379mm"
   height="47.854053mm"
   viewBox="0 0 118.63379 47.854053"
   version="1.1"
   id="svg1"
   xml:space="preserve"
   xmlns="http://www.w3.org/2000/svg"
   xmlns:svg="http://www.w3.org/2000/svg"><defs
     id="defs1" /><g
     id="layer1"
     transform="translate(-49.038893,-15.83846)"><g
       id="g6"
       transform="translate(0.80560579,-78.412297)"><path
         d="m 103.06986,131.67117 c -6.452733,3.63685 -17.340085,10.36372 -29.882219,10.43309 -12.542116,0.0694 -26.756771,-6.48582 -24.766685,-13.51277 1.990066,-7.02694 20.192449,-14.50029 30.615024,-20.5639 10.389655,-6.08141 12.95904,-10.79622 16.920473,-12.69588 3.986787,-1.907216 9.325127,-1.042415 13.564817,0.674739 4.25748,1.684233 7.40119,4.170111 18.40192,2.821091 10.99317,-1.37437 29.78508,-6.593855 36.17605,-3.033518 6.39097,3.560327 0.35563,15.908038 -4.45259,26.260648 -4.83357,10.36018 -8.41468,18.71769 -15.8965,19.18261 -7.47427,0.49026 -18.8239,-6.91962 -25.52935,-10.33092 -6.68764,-3.44422 -8.72354,-2.86448 -15.15094,0.76481"
         fill="#000000"
         id="path1"
         style="stroke-width:0.264583" /><text
         xml:space="preserve"
         style="font-style:normal;font-variant:normal;font-weight:normal;font-stretch:normal;font-size:19.7556px;line-height:0px;font-family:'Gill Sans MT';-inkscape-font-specification:'Gill Sans MT, Normal';font-variant-ligatures:normal;font-variant-caps:normal;font-variant-numeric:normal;font-variant-east-asian:normal;text-align:center;writing-mode:lr-tb;direction:ltr;text-anchor:middle;fill:#ffffff;fill-opacity:1;stroke:none;stroke-width:0.264583;stroke-linecap:round;stroke-dasharray:none;stroke-opacity:1;paint-order:stroke fill markers"
         x="114.39603"
         y="121.1094"
         id="text5"><tspan
           id="tspan5"
           style="stroke-width:0.264583"
           x="114.39603"
           y="121.1094">Bit16</tspan></text></g></g><style
     type="text/css"
     id="style1">
<![CDATA[
	.st0{fill:#000000;}
]]>
</style></svg>
