<?xml version="1.0" encoding="UTF-8" standalone="no"?>
<!-- Created with Inkscape (http://www.inkscape.org/) -->

<svg
   width="120.22372mm"
   height="100.05675mm"
   viewBox="0 0 120.22372 100.05675"
   version="1.1"
   id="svg1"
   xml:space="preserve"
   xmlns="http://www.w3.org/2000/svg"
   xmlns:svg="http://www.w3.org/2000/svg"><defs
     id="defs1" /><g
     id="layer1"
     transform="translate(-45.533427,-172.94367)"><path
       d="m 149.53319,208.99994 c 5.63246,11.16225 15.5111,21.20691 16.18781,31.16297 0.66166,9.97784 -7.85686,19.88213 -17.76408,25.51365 -9.91394,5.59472 -21.17979,6.90995 -31.27668,7.23201 -10.07512,0.3371 -18.959535,-0.30393 -29.470579,-1.10441 -10.532807,-0.81551 -22.698973,-1.82728 -26.850536,-8.52439 -4.114751,-6.70383 -0.193143,-19.07797 -3.500824,-31.88184 -3.307677,-12.80388 -13.844643,-26.03749 -10.768839,-32.62784 3.075812,-6.59034 19.764388,-6.5374 31.927155,-10.12741 12.169487,-3.55319 19.791391,-10.76438 29.539793,-13.93258 9.7484,-3.1682 21.60825,-2.27167 28.22794,4.29811 6.65651,6.56307 8.07958,18.83621 13.74884,29.99173"
       fill="#000000"
       id="path1-3"
       style="stroke-width:0.264583" /><text
       xml:space="preserve"
       style="font-style:normal;font-variant:normal;font-weight:normal;font-stretch:normal;font-size:35.1589px;line-height:0px;font-family:'Gill Sans MT';-inkscape-font-specification:'Gill Sans MT, Normal';font-variant-ligatures:normal;font-variant-caps:normal;font-variant-numeric:normal;font-variant-east-asian:normal;text-align:center;writing-mode:lr-tb;direction:ltr;text-anchor:middle;fill:#ffffff;fill-opacity:1;stroke:none;stroke-width:0.183119;stroke-linecap:round;stroke-dasharray:none;stroke-opacity:1;paint-order:stroke fill markers"
       x="105.91236"
       y="242.75746"
       id="text6-5"
       transform="scale(1.0374425,0.96390885)"><tspan
         id="tspan6-7"
         style="font-style:normal;font-variant:normal;font-weight:normal;font-stretch:normal;font-size:35.1589px;font-family:'Gill Sans MT';-inkscape-font-specification:'Gill Sans MT, Normal';font-variant-ligatures:normal;font-variant-caps:normal;font-variant-numeric:normal;font-variant-east-asian:normal;stroke-width:0.183119"
         x="105.91236"
         y="242.75746">Bit16</tspan></text></g><style
     type="text/css"
     id="style1">
<![CDATA[
	.st0{fill:#000000;}
]]>
</style></svg>
