<?xml version="1.0" encoding="UTF-8" standalone="no"?>
<!-- Created with Inkscape (http://www.inkscape.org/) -->

<svg
   width="139.25777mm"
   height="56.832504mm"
   viewBox="0 0 139.25777 56.832504"
   version="1.1"
   id="svg1"
   xml:space="preserve"
   xmlns="http://www.w3.org/2000/svg"
   xmlns:svg="http://www.w3.org/2000/svg"><defs
     id="defs1" /><g
     id="layer1"
     transform="translate(-34.841108,-93.977464)"><path
       d="m 124.64103,96.040719 c 11.40355,-2.24896 28.60146,-3.99521 38.92021,2.24896 10.29229,6.217701 13.70542,20.372911 7.27604,29.897911 -6.42937,9.49854 -22.67479,14.34042 -34.1577,17.96521 -11.48292,3.59834 -18.17688,6.00605 -23.6273,3.28084 -5.42395,-2.69875 -9.57791,-10.53042 -18.706041,-9.55146 -9.10166,1.00541 -23.1775,10.82146 -34.39583,10.92729 -11.24479,0.0794 -19.63208,-9.55146 -23.25687,-21.11375 -3.59834,-11.56229 -2.43417,-25.0825 7.77875,-29.05125 10.21291,-3.995211 29.50104,1.56104 40.61354,3.67771 11.1125,2.11666 14.049372,0.79375 18.335621,-1.24355 4.25979,-2.03729 9.8425,-4.815411 21.21958,-7.037911"
       fill="#000000"
       id="path1-6"
       style="stroke-width:0.264583" /><text
       xml:space="preserve"
       style="font-style:normal;font-variant:normal;font-weight:normal;font-stretch:normal;font-size:35.1589px;line-height:0px;font-family:'Gill Sans MT';-inkscape-font-specification:'Gill Sans MT, Normal';font-variant-ligatures:normal;font-variant-caps:normal;font-variant-numeric:normal;font-variant-east-asian:normal;text-align:center;writing-mode:lr-tb;direction:ltr;text-anchor:middle;fill:#ffffff;fill-opacity:1;stroke:none;stroke-width:0.183119;stroke-linecap:round;stroke-dasharray:none;stroke-opacity:1;paint-order:stroke fill markers"
       x="101.36157"
       y="137.20329"
       id="text6"
       transform="scale(1.0374425,0.96390885)"><tspan
         id="tspan6"
         style="font-style:normal;font-variant:normal;font-weight:normal;font-stretch:normal;font-size:35.1589px;font-family:'Gill Sans MT';-inkscape-font-specification:'Gill Sans MT, Normal';font-variant-ligatures:normal;font-variant-caps:normal;font-variant-numeric:normal;font-variant-east-asian:normal;stroke-width:0.183119"
         x="101.36157"
         y="137.20329">Bit16</tspan></text></g><style
     type="text/css"
     id="style1">
<![CDATA[
	.st0{fill:#000000;}
]]>
</style></svg>
