<?xml version="1.0" encoding="UTF-8" standalone="no"?>
<!-- Created with Inkscape (http://www.inkscape.org/) -->

<svg
   width="189.83337mm"
   height="107.60211mm"
   viewBox="0 0 189.83337 107.60211"
   version="1.1"
   id="svg1"
   xml:space="preserve"
   xmlns="http://www.w3.org/2000/svg"
   xmlns:svg="http://www.w3.org/2000/svg"><defs
     id="defs1"><style
       id="style1">.cls-1{fill:none;stroke:#020202;stroke-miterlimit:10;stroke-width:1.91px;}</style><style
       id="style1-1">.a{fill:none;stroke:#000000;stroke-linecap:round;stroke-linejoin:round;}</style></defs><g
     id="layer1"
     transform="translate(-15.059029,-62.950006)"><path
       id="path1"
       style="stroke-width:0.245402"
       d="m 149.54953,62.957397 c -13.60817,0.266406 -29.09638,7.649582 -44.22056,8.686292 C 88.051459,72.805526 71.225463,65.670982 60.733244,69.827779 50.241023,73.984585 46.05876,89.425317 39.820825,105.1481 c -2.785987,6.99419 -5.927366,14.02205 -8.262028,20.76411 0.138625,0.0582 0.274966,0.0907 0.414962,0.1633 v 1.29863 c -0.290031,-0.17009 -0.539237,-0.27368 -0.791166,-0.38241 -0.16811,0.50352 -0.368889,1.01851 -0.526066,1.51826 1.095972,0.61552 1.652095,1.2948 1.652095,2.03966 0,0.54369 -0.22077,0.99133 -0.662492,1.34256 -0.436757,0.34641 -0.99994,0.51986 -1.689819,0.51986 -0.1441,0 -0.252089,-0.0332 -0.384989,-0.0434 -1.526535,6.02892 -1.986767,11.70471 -0.342098,16.73438 3.995278,12.21823 20.342018,20.61815 35.268648,21.33307 14.933905,0.69194 28.447871,-6.30085 42.584998,-5.99033 14.10586,0.32654 28.81059,7.9496 40.30193,5.6875 11.49134,-2.26209 19.76918,-14.40955 27.00766,-28.73881 1.91666,-3.78211 3.74706,-7.72063 5.37383,-11.74347 v -3.99407 h 1.38493 v 0.34365 c 3.69329,-10.14785 5.77884,-20.72714 3.8871,-30.802256 -2.87124,-15.353457 -14.89986,-29.523933 -29.77855,-31.880225 -1.86074,-0.291665 -3.76622,-0.398759 -5.71024,-0.360702 z m 31.60169,63.043183 c -0.44485,1.22228 -0.89651,2.44261 -1.38493,3.65042 v 2.64532 h 1.38493 V 127.555 c 0.44668,-0.62066 0.99014,-0.9312 1.63039,-0.9312 0.50128,0 0.85887,0.14679 1.07228,0.44028 0.21342,0.28868 0.31988,0.77216 0.31988,1.45056 v 3.78168 h 1.35496 v -3.79615 c 0,-0.80831 -0.0969,-1.3979 -0.29042,-1.76837 -0.1886,-0.37528 -0.46628,-0.66835 -0.83355,-0.88005 -0.36727,-0.21651 -0.7643,-0.32505 -1.19114,-0.32505 -0.76929,0 -1.4569,0.3251 -2.0624,0.97462 z m -151.579898,6.36808 c 0.09231,-0.36457 0.171279,-0.72478 0.271301,-1.09192 -0.271644,-10e-4 -0.604707,-0.0788 -1.00304,-0.23616 -0.397053,-0.16359 -0.786758,-0.37529 -1.168921,-0.6351 v 1.41438 c 0.481427,0.22613 0.880735,0.38262 1.198377,0.46922 0.205173,0.0528 0.459836,0.0609 0.702283,0.0796 z m 0.271301,-1.09192 c 0.0025,1e-5 0.0068,0.002 0.0093,0.002 0.2829,0 0.526182,-0.0673 0.729671,-0.20206 0.203489,-0.13471 0.304891,-0.29605 0.304891,-0.48369 0,-0.19245 -0.06702,-0.35136 -0.201022,-0.47645 -0.06406,-0.0645 -0.281252,-0.18419 -0.421162,-0.27596 -0.141429,0.47893 -0.292303,0.96121 -0.42168,1.43609 z m 0.42168,-1.43609 c 0.130972,-0.44352 0.251708,-0.8839 0.392224,-1.33066 -0.02255,-0.0127 -0.03745,-0.0262 -0.06046,-0.0388 l -0.483691,-0.26665 c -0.367273,-0.19727 -0.625218,-0.36587 -0.774113,-0.5054 -0.143931,-0.13953 -0.216008,-0.28632 -0.216008,-0.44028 0,-0.17802 0.07941,-0.31997 0.238229,-0.42581 0.163784,-0.11067 0.377223,-0.16589 0.640271,-0.16589 0.326802,0 0.735366,0.13184 1.18184,0.32453 0.119415,-0.35767 0.251733,-0.72007 0.376204,-1.07952 -0.559242,-0.23482 -1.110513,-0.38551 -1.647444,-0.38551 -0.645211,0 -1.173492,0.16134 -1.585433,0.4837 -0.406979,0.32235 -0.610816,0.7385 -0.610816,1.2485 0,0.39453 0.134032,0.7603 0.402043,1.09709 0.272973,0.33198 0.846276,0.73358 1.719791,1.20509 0.219923,0.12113 0.285462,0.1865 0.427365,0.27957 z m 3.578076,-7.6264 h 1.354956 v 4.31549 c 0.5658,-0.66877 1.268074,-1.00304 2.106848,-1.00304 0.45661,0 0.866039,0.11096 1.228349,0.33228 0.36231,0.22133 0.630375,0.52652 0.804085,0.91623 0.178674,0.38972 0.267684,0.96961 0.267684,1.73943 v 3.78168 h -1.354956 v -4.10621 c 0,-0.48595 -0.123913,-0.87595 -0.37207,-1.16944 -0.243195,-0.2983 -0.565885,-0.44752 -0.9679,-0.44752 -0.29779,0 -0.578245,0.0746 -0.841292,0.22376 -0.263048,0.14915 -0.553106,0.39721 -0.870748,0.74363 v 4.75578 h -1.354956 z m 43.313118,0 h 1.354956 v 4.31549 c 0.5658,-0.66877 1.268075,-1.00304 2.106848,-1.00304 0.456611,0 0.866038,0.11096 1.228349,0.33228 0.36231,0.22133 0.630375,0.52652 0.804086,0.91623 0.178673,0.38972 0.2682,0.96961 0.2682,1.73943 v 3.78168 H 81.56298 v -4.10621 c 0,-0.48595 -0.123912,-0.87595 -0.37207,-1.16944 -0.243195,-0.2983 -0.565884,-0.44752 -0.9679,-0.44752 -0.297789,0 -0.578245,0.0746 -0.841292,0.22376 -0.263047,0.14915 -0.553623,0.39721 -0.871265,0.74363 v 4.75578 h -1.354956 z m 62.335213,0 h 1.36219 v 10.08207 h -2.89595 c -1.01248,0 -1.82174,-0.31055 -2.42724,-0.93121 -0.60054,-0.62066 -0.90072,-1.45295 -0.90072,-2.49701 0,-0.9767 0.31536,-1.7799 0.94568,-2.41019 0.63528,-0.63028 1.44402,-0.94567 2.42673,-0.94567 0.45661,0 0.95329,0.094 1.48931,0.28163 z m 15.79025,0 h 1.35496 v 3.91862 c 0.58564,-0.41378 1.21079,-0.62063 1.87585,-0.62063 0.86856,0 1.57816,0.31782 2.12907,0.95291 0.55091,0.6351 0.82631,1.45041 0.82631,2.44636 0,1.06811 -0.33003,1.91979 -0.99012,2.55488 -0.65514,0.63029 -1.53368,0.94517 -2.6355,0.94517 -0.44172,0 -0.90805,-0.0455 -1.3994,-0.13695 -0.48639,-0.0914 -0.87331,-0.2067 -1.16117,-0.34623 z m -99.104544,0.64957 c 0.223343,0 0.414271,0.0746 0.573092,0.22376 0.15882,0.14915 0.238228,0.33177 0.238228,0.54828 0,0.2117 -0.07941,0.39485 -0.238228,0.54881 -0.158821,0.15396 -0.349749,0.23047 -0.573092,0.23047 -0.208452,0 -0.39205,-0.0765 -0.550871,-0.23047 -0.158821,-0.15878 -0.238228,-0.34192 -0.238228,-0.54881 0,-0.20207 0.07941,-0.37985 0.238228,-0.53381 0.158821,-0.15878 0.342419,-0.23823 0.550871,-0.23823 z m 120.977114,0 c 0.22334,0 0.41427,0.0746 0.57309,0.22376 0.15882,0.14915 0.23823,0.33177 0.23823,0.54828 0,0.2117 -0.0794,0.39485 -0.23823,0.54881 -0.15882,0.15396 -0.34975,0.23047 -0.57309,0.23047 -0.20846,0 -0.39205,-0.0765 -0.55087,-0.23047 -0.15882,-0.15878 -0.23823,-0.34192 -0.23823,-0.54881 0,-0.20207 0.0794,-0.37985 0.23823,-0.53381 0.15882,-0.15878 0.34241,-0.23823 0.55087,-0.23823 z M 18.461405,125.5267 c -0.655137,0 -1.310118,0.51257 -1.965254,1.53738 l -0.07441,0.11524 v -1.52239 h -1.362708 v 6.63939 h 1.362708 v -3.47111 c 0,-0.5533 0.158814,-1.03245 0.476456,-1.4366 0.322606,-0.40416 0.702191,-0.60617 1.138949,-0.60617 0.402015,0 0.838498,0.21655 1.309997,0.64957 l 0.714686,-1.15445 c -0.555874,-0.50037 -1.089214,-0.75086 -1.60042,-0.75086 z m 5.092196,0 c -0.943,0 -1.710019,0.31783 -2.300635,0.95292 -0.590615,0.63028 -0.885734,1.45045 -0.885734,2.46083 0,0.67358 0.139092,1.26802 0.417029,1.78284 0.2829,0.51 0.657426,0.91645 1.123962,1.21956 0.466537,0.30312 1.077013,0.45475 1.831413,0.45475 0.550911,0 1.030143,-0.0582 1.437122,-0.17363 0.411942,-0.11547 0.825912,-0.30779 1.242818,-0.57723 v -1.28467 c -0.7544,0.53887 -1.577798,0.80822 -2.471167,0.80822 -0.640247,0 -1.163984,-0.18747 -1.570964,-0.56276 -0.402015,-0.37528 -0.620514,-0.88058 -0.655257,-1.51567 h 4.816761 v -0.16588 c 0,-1.03444 -0.270337,-1.85945 -0.81132,-2.4753 -0.540985,-0.61585 -1.26577,-0.92398 -2.174028,-0.92398 z m 19.78794,0 c 0.73951,0 1.332534,0.18799 1.779219,0.56328 0.148895,0.12028 0.282927,0.2811 0.402043,0.48317 0.119115,0.19727 0.19398,0.39686 0.223759,0.59893 0.03474,0.19727 0.05168,0.57515 0.05168,1.13327 v 2.82205 c 0,0.22613 0.07941,0.33899 0.238228,0.33899 0.163785,0 0.419458,-0.11771 0.766879,-0.35346 v 0.80098 c -0.307716,0.19246 -0.555541,0.32228 -0.744141,0.38964 -0.183637,0.0722 -0.377354,0.10852 -0.580843,0.10852 -0.58069,0 -0.923101,-0.2214 -1.027327,-0.66404 -0.575726,0.43302 -1.188991,0.64957 -1.839165,0.64957 -0.476463,0 -0.873499,-0.15163 -1.191141,-0.45475 -0.317642,-0.30793 -0.476457,-0.69308 -0.476457,-1.15497 0,-0.41858 0.154272,-0.79111 0.461987,-1.11828 0.312679,-0.33198 0.754221,-0.59457 1.324984,-0.78703 l 1.734778,-0.57722 v -0.35347 c 0,-0.79868 -0.412217,-1.19838 -1.236101,-1.19838 -0.739511,0 -1.459236,0.37062 -2.159041,1.11156 v -1.43608 c 0.526095,-0.60142 1.282994,-0.90228 2.270663,-0.90228 z m 18.89497,0 c 0.426832,0 0.823868,0.10854 1.191142,0.32505 0.367273,0.2117 0.64494,0.50477 0.833541,0.88005 0.193563,0.37047 0.290421,0.96006 0.290421,1.76837 v 3.79615 h -1.354956 v -3.78168 c 0,-0.6784 -0.106461,-1.16188 -0.319877,-1.45056 -0.213415,-0.29349 -0.571007,-0.44028 -1.072286,-0.44028 -0.640247,0 -1.183707,0.31054 -1.630391,0.9312 v 4.74132 h -1.384412 v -6.63939 h 1.384412 v 0.84439 c 0.605505,-0.64952 1.293117,-0.97462 2.062406,-0.97462 z m 110.256319,0 c 0.67003,0 1.35764,0.18315 2.06241,0.54881 v 1.29863 c -0.80403,-0.47151 -1.4618,-0.70694 -1.97301,-0.70694 -0.26305,0 -0.47649,0.0552 -0.64027,0.16589 -0.15882,0.10584 -0.23823,0.24779 -0.23823,0.42581 0,0.15396 0.0721,0.30075 0.21601,0.44028 0.14889,0.13953 0.40684,0.30762 0.77411,0.50488 l 0.48421,0.26717 c 1.14152,0.62547 1.71204,1.31824 1.71204,2.07842 0,0.54369 -0.22077,0.99133 -0.66249,1.34256 -0.43675,0.34641 -0.99994,0.51935 -1.68982,0.51935 -0.40698,0 -0.76963,-0.0407 -1.08727,-0.12248 -0.31765,-0.0866 -0.71695,-0.24309 -1.19838,-0.46922 v -1.41438 c 0.38216,0.25981 0.77187,0.47151 1.16892,0.6351 0.40202,0.15877 0.73937,0.23823 1.01234,0.23823 0.2829,0 0.52618,-0.0673 0.72967,-0.20206 0.20349,-0.13471 0.30541,-0.29605 0.30541,-0.48369 0,-0.19245 -0.067,-0.35136 -0.20102,-0.47645 -0.12904,-0.12991 -0.41228,-0.31497 -0.84904,-0.55553 -0.87352,-0.47151 -1.44682,-0.87311 -1.7198,-1.20509 -0.26801,-0.33679 -0.40204,-0.70256 -0.40204,-1.09709 0,-0.51 0.20384,-0.92615 0.61082,-1.2485 0.41194,-0.32236 0.94022,-0.4837 1.58543,-0.4837 z m 17.77824,0 c -0.943,0 -1.71001,0.31783 -2.30063,0.95292 -0.59062,0.63028 -0.88574,1.45045 -0.88574,2.46083 0,0.67358 0.1391,1.26751 0.41703,1.78232 0.2829,0.51 0.65743,0.91697 1.12397,1.22008 0.46653,0.30312 1.07701,0.45475 1.83141,0.45475 0.5509,0 1.02962,-0.0582 1.4366,-0.17363 0.41195,-0.11547 0.82643,-0.30779 1.24334,-0.57723 v -1.28467 c -0.7544,0.53887 -1.57832,0.80822 -2.47169,0.80822 -0.64024,0 -1.16346,-0.18747 -1.57044,-0.56276 -0.40203,-0.37528 -0.62052,-0.88058 -0.65526,-1.51567 h 4.81676 v -0.16588 c 0,-1.03444 -0.27033,-1.85945 -0.81132,-2.4753 -0.54098,-0.61585 -1.26577,-0.92398 -2.17403,-0.92398 z m 6.35775,0 c -0.6452,0 -1.174,0.16134 -1.58594,0.4837 -0.40698,0.32235 -0.6103,0.7385 -0.6103,1.2485 0,0.39453 0.13403,0.7603 0.40204,1.09709 0.27297,0.33198 0.84628,0.73358 1.71979,1.20509 0.43676,0.24056 0.71949,0.42562 0.84853,0.55553 0.134,0.12509 0.20102,0.284 0.20102,0.47645 0,0.18764 -0.1014,0.34898 -0.30489,0.48369 -0.20349,0.13472 -0.44677,0.20206 -0.72967,0.20206 -0.27298,0 -0.61085,-0.0795 -1.01286,-0.23823 -0.39705,-0.16359 -0.78624,-0.37529 -1.16841,-0.6351 v 1.41438 c 0.48143,0.22613 0.88074,0.38262 1.19838,0.46922 0.31764,0.0818 0.67978,0.12248 1.08676,0.12248 0.68988,0 1.25357,-0.17294 1.69033,-0.51935 0.44172,-0.35123 0.66249,-0.79887 0.66249,-1.34256 0,-0.76018 -0.57102,-1.45295 -1.71255,-2.07842 l -0.48369,-0.26717 c -0.36728,-0.19726 -0.62522,-0.36535 -0.77412,-0.50488 -0.14392,-0.13953 -0.216,-0.28632 -0.216,-0.44028 0,-0.17802 0.0794,-0.31997 0.23822,-0.42581 0.16379,-0.11067 0.37723,-0.16589 0.64028,-0.16589 0.5112,0 1.16897,0.23543 1.973,0.70694 v -1.29863 c -0.70477,-0.36566 -1.39238,-0.54881 -2.06241,-0.54881 z m 5.86631,0 c -0.6452,0 -1.17349,0.16134 -1.58543,0.4837 -0.40698,0.32235 -0.61081,0.7385 -0.61081,1.2485 0,0.39453 0.13403,0.7603 0.40204,1.09709 0.27297,0.33198 0.84628,0.73358 1.71979,1.20509 0.43676,0.24056 0.72,0.42562 0.84904,0.55553 0.13401,0.12509 0.20051,0.284 0.20051,0.47645 0,0.18764 -0.1014,0.34898 -0.30489,0.48369 -0.20349,0.13472 -0.44677,0.20206 -0.72967,0.20206 -0.27297,0 -0.61033,-0.0795 -1.01235,-0.23823 -0.39705,-0.16359 -0.78675,-0.37529 -1.16892,-0.6351 v 1.41438 c 0.48143,0.22613 0.88074,0.38262 1.19838,0.46922 0.31764,0.0818 0.6803,0.12248 1.08727,0.12248 0.68988,0 1.25306,-0.17294 1.68982,-0.51935 0.44172,-0.35123 0.66249,-0.79887 0.66249,-1.34256 0,-0.76018 -0.57051,-1.45295 -1.71204,-2.07842 l -0.48421,-0.26717 c -0.36726,-0.19726 -0.62521,-0.36535 -0.77411,-0.50488 -0.14393,-0.13953 -0.21601,-0.28632 -0.21601,-0.44028 0,-0.17802 0.0794,-0.31997 0.23823,-0.42581 0.16379,-0.11067 0.37723,-0.16589 0.64027,-0.16589 0.51121,0 1.16898,0.23543 1.97301,0.70694 v -1.29863 c -0.70477,-0.36566 -1.39238,-0.54881 -2.06241,-0.54881 z m -114.410584,0.11576 c 1.042263,0 1.908412,0.327 2.598291,0.98134 0.689879,0.64953 1.034562,1.46727 1.034562,2.45359 0,0.95745 -0.349743,1.75391 -1.049548,2.389 -0.699805,0.63029 -1.580617,0.94568 -2.642733,0.94568 -1.027374,0 -1.886191,-0.32024 -2.57607,-0.96015 -0.689879,-0.64472 -1.034562,-1.44792 -1.034562,-2.41018 0,-0.9719 0.347471,-1.78046 1.042313,-2.42518 0.699805,-0.64952 1.575557,-0.9741 2.627747,-0.9741 z m 29.838484,0 c 1.04226,0 1.90842,0.327 2.5983,0.98134 0.68988,0.64953 1.03456,1.46727 1.03456,2.45359 0,0.95745 -0.34974,1.75391 -1.04955,2.389 -0.69981,0.63029 -1.58062,0.94517 -2.64273,0.94517 -1.02738,0 -1.88619,-0.31973 -2.57607,-0.95964 -0.68988,-0.64472 -1.03457,-1.44844 -1.03457,-2.4107 0,-0.97189 0.34748,-1.77994 1.04232,-2.42466 0.69981,-0.64952 1.57555,-0.9741 2.62774,-0.9741 z m 28.04429,0 c 1.04226,0 1.90841,0.327 2.59829,0.98134 0.68988,0.64953 1.03456,1.46727 1.03456,2.45359 0,0.95745 -0.34974,1.75391 -1.04955,2.389 -0.6998,0.63029 -1.58062,0.94517 -2.64273,0.94517 -1.02738,0 -1.88619,-0.31973 -2.57607,-0.95964 -0.68987,-0.64472 -1.03456,-1.44844 -1.03456,-2.4107 0,-0.97189 0.34747,-1.77994 1.04231,-2.42466 0.69981,-0.64952 1.57556,-0.9741 2.62775,-0.9741 z m -98.20331,0.0145 h 2.374532 c 1.215973,0 2.16153,0.29307 2.836519,0.88005 0.679953,0.58698 1.020093,1.40766 1.020093,2.46135 0,0.99594 -0.320417,1.81369 -0.960665,2.45359 -0.635284,0.63991 -1.446292,0.96015 -2.43396,0.96015 -0.436758,0 -0.921051,-0.094 -1.452108,-0.28163 v 3.55068 H 47.76401 Z m 7.742163,0 h 1.354956 v 6.63939 h -1.354956 z m 13.571781,0 h 2.821533 v 1.02474 h -1.384411 c 0.26801,0.26463 0.453879,0.5049 0.558105,0.72141 0.104227,0.21651 0.15658,0.46456 0.15658,0.74362 0,0.34642 -0.101918,0.68795 -0.305408,1.02474 -0.203489,0.33199 -0.466494,0.5868 -0.789099,0.76481 -0.317642,0.17802 -0.84138,0.31997 -1.570964,0.42582 -0.511205,0.0722 -0.766878,0.24319 -0.766878,0.51263 0,0.15396 0.09459,0.28137 0.283187,0.3824 0.193563,0.0962 0.541035,0.1975 1.042314,0.30335 0.838773,0.17801 1.377173,0.31754 1.615405,0.41857 0.243195,0.10104 0.461694,0.24541 0.655257,0.43305 0.327569,0.31755 0.491443,0.71673 0.491443,1.19786 0,0.63029 -0.290575,1.13315 -0.871265,1.50844 -0.575726,0.37528 -1.347288,0.56275 -2.315104,0.56275 -0.977742,0 -1.759424,-0.18989 -2.345076,-0.56999 -0.580689,-0.37528 -0.871265,-0.88057 -0.871265,-1.51567 0,-0.89971 0.573303,-1.47961 1.719792,-1.73943 -0.456611,-0.28386 -0.684713,-0.56533 -0.684713,-0.84439 0,-0.2117 0.09634,-0.40402 0.289905,-0.57722 0.198526,-0.17321 0.464319,-0.30062 0.79685,-0.38241 -1.007521,-0.43301 -1.511535,-1.13305 -1.511535,-2.10013 0,-0.70727 0.265792,-1.26535 0.79685,-1.67432 0.536021,-0.41377 1.26535,-0.62063 2.188497,-0.62063 z m 23.034253,0 h 1.451591 l 1.794206,4.02663 1.742012,-4.02663 h 1.005107 l 1.734778,4.02663 1.786449,-4.02663 h 1.45211 l -3.02255,6.75514 h -0.424782 l -2.032434,-4.62659 -1.99471,4.62659 h -0.43925 z m 15.202173,0 h 1.54099 l 1.8464,3.74551 1.76423,-3.74551 h 1.52601 l -4.84622,10.02419 h -1.51153 l 2.3306,-4.80642 z m 15.71584,0 h 1.35495 v 3.78892 c 0,0.69763 0.10192,1.18596 0.30541,1.46502 0.20845,0.27425 0.57059,0.41135 1.08676,0.41135 0.64521,0 1.19372,-0.3057 1.64537,-0.91674 v -4.74855 h 1.35496 v 6.63939 h -1.35496 v -0.8444 c -0.28786,0.30312 -0.61788,0.53906 -0.99012,0.70745 -0.36727,0.1684 -0.73498,0.25219 -1.10226,0.25219 -0.43178,0 -0.8311,-0.10317 -1.19837,-0.31006 -0.36231,-0.2117 -0.63771,-0.49559 -0.82631,-0.85163 -0.18364,-0.36085 -0.27543,-0.95772 -0.27543,-1.79007 z m 39.9035,0 h 1.35496 v 3.78892 c 0,0.69763 0.10192,1.18596 0.30541,1.46502 0.20845,0.27425 0.57058,0.41135 1.08675,0.41135 0.64522,0 1.19373,-0.3057 1.64538,-0.91674 v -4.74855 h 1.35496 v 6.63939 h -1.35496 v -0.8444 c -0.28786,0.30312 -0.61788,0.53906 -0.99012,0.70745 -0.36727,0.1684 -0.73447,0.25219 -1.10174,0.25219 -0.4318,0 -0.83111,-0.10317 -1.19838,-0.31006 -0.36231,-0.2117 -0.63822,-0.49559 -0.82682,-0.85163 -0.18364,-0.36085 -0.27544,-0.95772 -0.27544,-1.79007 z m 13.54956,0 h 1.35496 v 6.63939 h -1.35496 z m -38.27311,0.9958 c -0.67499,0 -1.21391,0.21413 -1.61592,0.64234 -0.39705,0.42821 -0.59532,1.00568 -0.59532,1.7322 0,0.6832 0.17349,1.20979 0.5209,1.58026 0.20846,0.22132 0.42974,0.37054 0.66301,0.44752 0.23327,0.077 0.6523,0.11524 1.25781,0.11524 h 1.05006 v -4.2075 c -0.42187,-0.20688 -0.84875,-0.31006 -1.28054,-0.31006 z m -114.656569,0.0145 c 0.486389,0 0.873306,0.14195 1.16117,0.42582 0.287863,0.28387 0.449465,0.68789 0.484208,1.21233 h -3.446818 c 0.0943,-0.52444 0.295348,-0.92846 0.603064,-1.21233 0.312679,-0.28387 0.711987,-0.42582 1.198376,-0.42582 z m 166.717469,0 c 0.48639,0 0.87331,0.14195 1.16117,0.42582 0.28787,0.28387 0.44948,0.68789 0.48421,1.21233 h -3.44682 c 0.0943,-0.52444 0.29483,-0.92846 0.60255,-1.21233 0.31268,-0.28387 0.7125,-0.42582 1.19889,-0.42582 z m -32.09416,0.0718 c -0.50625,0 -1.01987,0.21656 -1.54099,0.64958 v 3.59409 c 0.46157,0.13472 0.93523,0.20206 1.42162,0.20206 0.60054,0 1.08937,-0.20686 1.46657,-0.62064 0.38217,-0.41377 0.57361,-0.94521 0.57361,-1.59473 0,-0.65916 -0.17905,-1.19595 -0.5364,-1.60972 -0.35239,-0.41378 -0.81365,-0.62064 -1.38441,-0.62064 z m -89.538206,0.0579 c -0.367273,0 -0.679843,0.12014 -0.937927,0.3607 -0.258084,0.24057 -0.387056,0.52931 -0.387056,0.8661 0,0.34161 0.1267,0.62549 0.379821,0.85163 0.253121,0.22132 0.573023,0.33228 0.960149,0.33228 0.382163,0 0.699792,-0.11338 0.952913,-0.33952 0.258084,-0.23094 0.387056,-0.51725 0.387056,-0.85886 0,-0.34642 -0.128972,-0.63464 -0.387056,-0.86558 -0.258084,-0.23094 -0.580773,-0.34675 -0.9679,-0.34675 z m 19.371428,0.0289 c -0.650173,0 -1.183514,0.20686 -1.600419,0.62063 -0.416905,0.41378 -0.625802,0.94088 -0.625802,1.58079 0,0.63509 0.21344,1.1544 0.640271,1.55856 0.426832,0.39934 0.975352,0.59893 1.645378,0.59893 0.665063,0 1.208522,-0.20201 1.630391,-0.60617 0.426831,-0.40896 0.640271,-0.9307 0.640271,-1.56579 0,-0.63029 -0.220771,-1.15254 -0.662492,-1.56632 -0.441721,-0.41377 -0.997572,-0.62063 -1.667598,-0.62063 z m 29.838488,0 c -0.65017,0 -1.18351,0.20686 -1.60042,0.62063 -0.4169,0.41378 -0.6258,0.94088 -0.6258,1.58079 0,0.63509 0.21344,1.1544 0.64027,1.55856 0.42683,0.39934 0.97535,0.59893 1.64538,0.59893 0.66506,0 1.20852,-0.20201 1.63039,-0.60617 0.42683,-0.40896 0.64027,-0.9307 0.64027,-1.56579 0,-0.63029 -0.22077,-1.15254 -0.66249,-1.56632 -0.44172,-0.41377 -0.99758,-0.62063 -1.6676,-0.62063 z m 28.04428,0 c -0.65017,0 -1.18351,0.20686 -1.60042,0.62063 -0.4169,0.41378 -0.62528,0.94088 -0.62528,1.58079 0,0.63509 0.21292,1.1544 0.63975,1.55856 0.42684,0.39934 0.97535,0.59893 1.64538,0.59893 0.66506,0 1.20852,-0.20201 1.63039,-0.60617 0.42684,-0.40896 0.64027,-0.9307 0.64027,-1.56579 0,-0.63029 -0.22077,-1.15254 -0.66249,-1.56632 -0.44172,-0.41377 -0.99758,-0.62063 -1.6676,-0.62063 z m -96.744479,0.0579 v 4.0845 c 0.416905,0.20689 0.853904,0.31058 1.310515,0.31058 0.635284,0 1.153961,-0.21413 1.555977,-0.64234 0.406979,-0.42821 0.610299,-0.97903 0.610299,-1.65261 0,-0.43302 -0.09686,-0.81575 -0.290422,-1.14774 -0.1886,-0.33198 -0.448816,-0.57225 -0.781348,-0.7214 -0.327568,-0.15396 -0.809071,-0.23099 -1.444356,-0.23099 z m -4.682401,2.12907 -0.908472,0.33899 c -0.461573,0.17802 -0.789322,0.35823 -0.982886,0.54106 -0.1886,0.17802 -0.28267,0.40184 -0.28267,0.67127 0,0.27425 0.08953,0.49807 0.268201,0.67128 0.183637,0.17321 0.419071,0.25993 0.706933,0.25993 0.431796,0 0.83162,-0.17102 1.198894,-0.51263 z m 23.852807,3.59409 c -0.45661,0 -0.831136,0.0935 -1.123962,0.28112 -0.287863,0.18765 -0.432015,0.42844 -0.432015,0.72192 0,0.68321 0.635259,1.02475 1.905827,1.02475 0.600542,0 1.064594,-0.0867 1.392163,-0.25994 0.332531,-0.16839 0.498677,-0.40866 0.498677,-0.7214 0,-0.30792 -0.208379,-0.56083 -0.625284,-0.75809 -0.416905,-0.19246 -0.955305,-0.28836 -1.615406,-0.28836 z" /><text
       xml:space="preserve"
       style="font-size:36.5843px;line-height:0px;font-family:'Gill Sans MT';-inkscape-font-specification:'Gill Sans MT, Normal';text-align:center;writing-mode:lr-tb;direction:ltr;text-anchor:middle;fill:#fdffff;fill-opacity:1;stroke:none;stroke-width:1.82294;stroke-linecap:round;stroke-opacity:1;paint-order:stroke fill markers"
       x="110.20387"
       y="112.3556"
       id="text42"
       transform="scale(1.0316654,0.96930652)"><tspan
         id="tspan42"
         style="stroke-width:1.82294"
         x="110.20387"
         y="112.3556">Bit16</tspan></text></g></svg>
